<?xml version="1.0" encoding="utf-8"?>
<!-- Generator: Adobe Illustrator 16.0.0, SVG Export Plug-In . SVG Version: 6.00 Build 0)  -->
<!DOCTYPE svg PUBLIC "-//W3C//DTD SVG 1.0//EN" "http://www.w3.org/TR/2001/REC-SVG-20010904/DTD/svg10.dtd">
<svg version="1.0" id="Layer_1" xmlns="http://www.w3.org/2000/svg" xmlns:xlink="http://www.w3.org/1999/xlink" x="0px" y="0px"
	 width="440.418px" height="494.302px" viewBox="0 0 440.418 494.302" enable-background="new 0 0 440.418 494.302"
	 xml:space="preserve">
<path fill-rule="evenodd" clip-rule="evenodd" d="M180.827,0.018c18.56-0.444,21.082,7.517,30,16c1.333,0,2.667,0,4,0
	c5.666-5.333,11.334-10.667,17-16c4,0.333,8,0.667,12,1c7.39,3.047,10.941,8.525,11,19c-3.566,7.167-8.458,11.121-13,17
	c3.473,17.298,7.308,19.608,5,41c10.999,6,22.001,12,33,18c7.333,6.666,14.667,13.334,22,20c8.999,0,18.001,0,27,0
	c34.748-0.003,90.496-6.952,105,13c3.977,5.47,6.532,16.246,4,25c-9.681,33.479-60.13,21.061-99,24c-0.333,0.667-0.667,1.333-1,2
	c4.333,12.666,8.667,25.334,13,38c35.188,5.532,103.746-10.488,87,41c-11.292,34.721-51.595,10.464-81,23
	c-0.333,11.666-0.667,23.334-1,35c0.667,1,1.333,2,2,3c37.677-0.86,100.414-1.153,77,45c-16.27,32.07-62.421,4.94-95,19
	c-23.073,76.118-107.688,150.738-192,85c-15.502-12.087-29.945-32.668-40-50c-5.656-9.749-8.476-30.309-18-36
	c-31.558-7.463-97.307,11.413-88-35c9.265-46.204,44.91-13.872,76-31c-0.667-11.332-1.333-22.668-2-34c-0.667-1-1.333-2-2-3
	c-27.933,3.731-84.71,1.568-72-38c10.274-31.984,44.782-18.157,81-24c3.667-13.332,7.333-26.668,11-40c-0.667,0-1.333,0-2,0
	c-33.831-12.521-74.566,13.843-87-20c-2.354-6.405-4.362-15.311-1-23c16.197-37.048,81.164-7.594,124-18
	c2.522-0.613,46.803-34.036,51-38c-7.833-18.352,1.022-26.783,3-44c-5.427-5.75-10.991-8.534-12-19c0.667-2.667,1.333-5.333,2-8
	C174.827,5.351,177.828,2.684,180.827,0.018z"/>
</svg>
